<svg width="330" height="63" viewBox="0 0 330 63" fill="none" xmlns="http://www.w3.org/2000/svg">
<path d="M0.00807414 31.4677C0.00807414 21.3564 0.00807414 11.245 0.00807414 1.13637C0.00807414 0.485738 -0.0366378 0.502492 0.625654 0.502492C14.1901 0.502492 27.7545 0.494116 41.3161 0.508078C43.6411 0.508078 45.8683 1.04422 47.9893 1.99923C50.0097 2.90957 51.7423 4.20804 53.2206 5.8472C54.1176 6.84131 54.8805 7.93315 55.526 9.10597C56.7332 11.2952 57.4682 13.6409 57.7923 16.1122C57.9852 17.5866 58.0075 19.0666 57.8929 20.5521C57.7337 22.6381 57.267 24.6514 56.4929 26.5922C55.8194 28.2816 54.9448 29.8593 53.8074 31.2862C53.799 31.2946 53.7934 31.3058 53.7851 31.3142C53.5475 31.6241 53.5419 31.6297 53.7823 31.9285C54.6038 32.9561 55.3053 34.0591 55.8921 35.2347C56.831 37.1168 57.443 39.1022 57.756 41.1826C57.9125 42.2158 58.0103 43.2546 57.9991 44.2989C57.9684 47.3399 57.3648 50.2552 56.0234 53.0085C55.1627 54.7761 54.0673 56.3762 52.6784 57.7668C50.7279 59.7187 48.4113 61.0591 45.7565 61.8131C44.5158 62.1649 43.2471 62.3799 41.9588 62.4609C41.5424 62.4888 41.1261 62.5 40.7069 62.5C29.6603 62.5 18.6137 62.5 7.56994 62.5C7.43021 62.5 7.29049 62.5 7.15356 62.4944C6.98589 62.4916 6.89647 62.4079 6.89926 62.2347C6.89926 62.1426 6.89926 62.0504 6.89926 61.9555C6.89926 43.9359 6.89926 25.9192 6.89926 7.89964C6.89926 7.55151 7.08277 7.37652 7.44977 7.37466C15.6069 7.37466 23.764 7.39421 31.921 7.36349C34.8329 7.35232 37.7447 7.34394 40.6566 7.33836C42.1069 7.33836 43.5181 7.5813 44.8623 8.15375C46.5418 8.86861 47.8831 9.99675 48.9282 11.4795C50.0908 13.1243 50.7251 14.9729 50.999 16.9555C51.1191 17.8072 51.1694 18.6645 51.1219 19.5217C50.9682 22.2583 50.2025 24.7882 48.4923 26.9775C46.8296 29.1053 44.6387 30.3396 41.9868 30.7864C41.6179 30.8478 41.249 30.8674 40.8774 30.8674C39.4494 30.8674 38.0242 30.8534 36.5962 30.8702C28.6375 30.9595 20.6788 30.8953 12.7202 30.9204C12.2004 30.9204 12.1976 30.9204 12.1976 31.4398C12.1976 37.5748 12.1976 43.707 12.1976 49.8419C12.1976 50.1975 12.3774 50.3753 12.7369 50.3753C22.0761 50.3753 31.418 50.3753 40.7572 50.3753C41.6682 50.3753 42.5289 50.1742 43.3141 49.6995C44.1217 49.2108 44.7198 48.5323 45.1306 47.689C45.5525 46.8233 45.7565 45.9018 45.8348 44.944C45.9326 43.7209 45.7733 42.5369 45.3541 41.3892C44.879 40.0963 44.0994 39.0408 42.8698 38.365C42.1488 37.9685 41.3804 37.7367 40.5448 37.7367C33.0835 37.7451 25.6223 37.7451 18.1638 37.7479C17.9207 37.7479 17.6776 37.7479 17.4317 37.7423C16.1434 37.7116 15.129 36.6924 15.1122 35.3967C15.1067 35.0169 15.0787 34.6316 15.1933 34.2574C15.5035 33.2242 16.3753 32.5428 17.4512 32.5009C17.5798 32.4954 17.7055 32.4981 17.8341 32.4981C25.3987 32.4981 32.9634 32.4898 40.528 32.4954C42.3277 32.4954 44.0239 32.0821 45.6336 31.3086C47.8216 30.2586 49.4871 28.639 50.7111 26.5559C51.7004 24.872 52.2844 23.0542 52.5667 21.1274C52.7204 20.0774 52.7623 19.0247 52.698 17.9719C52.5247 15.0818 51.6892 12.4094 49.9007 10.0945C48.1793 7.86333 45.913 6.48946 43.1409 5.95611C42.378 5.80811 41.6039 5.7383 40.8243 5.7383C29.1741 5.74109 17.5267 5.74109 5.87648 5.74109C5.28964 5.74109 5.29803 5.69641 5.29803 6.34146C5.29803 24.8357 5.29803 43.33 5.29803 61.8242C5.29803 61.9527 5.29802 62.0783 5.29523 62.2068C5.29523 62.3883 5.20301 62.486 5.01858 62.4888C4.93754 62.4888 4.8565 62.4916 4.77546 62.4916C3.37263 62.4916 1.967 62.4916 0.564175 62.4916C0.494313 62.4916 0.424451 62.4916 0.354589 62.4916C0.0555797 62.4749 0.0136619 62.4358 0.00248398 62.1426C-0.00310498 62.0141 0.00248398 61.8885 0.00248398 61.76C0.00248398 51.6598 0.00248398 41.5624 0.00248398 31.4622L0.00807414 31.4677ZM26.9552 12.6216C22.2214 12.6216 17.4903 12.6216 12.7565 12.6216C12.3858 12.6216 12.1995 12.8069 12.1976 13.1773C12.1976 17.1426 12.1976 21.1078 12.1976 25.0703C12.1976 25.4314 12.3746 25.6129 12.7285 25.6148C22.009 25.6148 31.2895 25.6176 40.57 25.626C41.0897 25.626 41.5844 25.5254 42.065 25.3439C43.6327 24.7547 44.6583 23.6126 45.2423 22.0852C46.0499 19.9797 46.0667 17.8463 45.2647 15.7296C44.8036 14.5121 44.0072 13.5766 42.8 13.0237C42.1572 12.7305 41.4782 12.6161 40.7712 12.6161C36.1659 12.6216 31.5605 12.6188 26.9552 12.6188V12.6216Z" fill="#F7F7FF"/>
<path d="M97.1 16.96C97.3133 17.08 97.5267 17.2266 97.74 17.4C97.9533 17.5733 98.1467 17.7866 98.32 18.04C98.5067 18.2933 98.6533 18.5866 98.76 18.92C98.88 19.2533 98.94 19.6333 98.94 20.06C98.94 20.9266 98.8 21.6466 98.52 22.22C98.2533 22.78 97.8867 23.2333 97.42 23.58C96.9533 23.9133 96.4133 24.1533 95.8 24.3C95.2 24.4333 94.5667 24.5 93.9 24.5H87.56C87.4267 24.5 87.3133 24.4533 87.22 24.36C87.1267 24.2666 87.08 24.1533 87.08 24.02V10.34C87.08 10.2066 87.1267 10.0933 87.22 9.99998C87.3133 9.90664 87.4267 9.85998 87.56 9.85998H93.6C94.24 9.85998 94.8533 9.93331 95.44 10.08C96.0267 10.2133 96.54 10.44 96.98 10.76C97.4333 11.08 97.7933 11.5 98.06 12.02C98.34 12.5266 98.48 13.1533 98.48 13.9C98.48 14.5 98.3267 15.02 98.02 15.46C97.7267 15.9 97.4067 16.2466 97.06 16.5C96.82 16.6733 96.8333 16.8266 97.1 16.96ZM91.52 15.42H93.38C93.6467 15.42 93.86 15.32 94.02 15.12C94.18 14.9066 94.26 14.6733 94.26 14.42C94.26 14.18 94.16 13.9733 93.96 13.8C93.7733 13.6266 93.5933 13.54 93.42 13.54H91.52C91.3867 13.54 91.2733 13.5866 91.18 13.68C91.0867 13.7733 91.04 13.8866 91.04 14.02V14.94C91.04 15.0733 91.0867 15.1866 91.18 15.28C91.2733 15.3733 91.3867 15.42 91.52 15.42ZM93.62 18.72H91.52C91.3867 18.72 91.2733 18.7666 91.18 18.86C91.0867 18.9533 91.04 19.0666 91.04 19.2V20.34C91.04 20.4733 91.0867 20.5866 91.18 20.68C91.2733 20.7733 91.3867 20.82 91.52 20.82H93.76C94 20.82 94.2267 20.72 94.44 20.52C94.6533 20.32 94.76 20.0866 94.76 19.82C94.76 19.58 94.6533 19.34 94.44 19.1C94.24 18.8466 93.9667 18.72 93.62 18.72Z" fill="white"/>
<path d="M100.791 10.36C100.791 10.2266 100.838 10.1133 100.931 10.02C101.024 9.92664 101.138 9.87998 101.271 9.87998H104.291C104.424 9.87998 104.538 9.92664 104.631 10.02C104.724 10.1133 104.771 10.2266 104.771 10.36V18.46C104.771 18.98 104.851 19.4133 105.011 19.76C105.184 20.0933 105.391 20.36 105.631 20.56C105.884 20.7466 106.151 20.88 106.431 20.96C106.711 21.04 106.964 21.08 107.191 21.08C107.418 21.08 107.671 21.04 107.951 20.96C108.231 20.88 108.491 20.7466 108.731 20.56C108.971 20.36 109.171 20.0933 109.331 19.76C109.504 19.4133 109.591 18.98 109.591 18.46V10.36C109.591 10.2266 109.638 10.1133 109.731 10.02C109.824 9.92664 109.938 9.87998 110.071 9.87998H113.091C113.224 9.87998 113.338 9.92664 113.431 10.02C113.524 10.1133 113.571 10.2266 113.571 10.36V18.46C113.571 19.4066 113.418 20.2666 113.111 21.04C112.818 21.8133 112.391 22.4733 111.831 23.02C111.271 23.5666 110.598 23.9933 109.811 24.3C109.024 24.5933 108.151 24.74 107.191 24.74C106.231 24.74 105.358 24.5933 104.571 24.3C103.784 23.9933 103.111 23.5666 102.551 23.02C101.991 22.4733 101.558 21.8133 101.251 21.04C100.944 20.2666 100.791 19.4066 100.791 18.46V10.36Z" fill="white"/>
<path d="M127.473 21.3V24.02C127.473 24.1533 127.426 24.2666 127.333 24.36C127.239 24.4533 127.126 24.5 126.993 24.5H117.013C116.866 24.5 116.746 24.4533 116.653 24.36C116.573 24.2666 116.533 24.1533 116.533 24.02V10.34C116.533 10.2066 116.573 10.0933 116.653 9.99998C116.746 9.90664 116.866 9.85998 117.013 9.85998H120.013C120.146 9.85998 120.259 9.90664 120.353 9.99998C120.446 10.0933 120.493 10.2066 120.493 10.34V20.34C120.493 20.4733 120.533 20.5866 120.613 20.68C120.706 20.7733 120.826 20.82 120.973 20.82H126.993C127.126 20.82 127.239 20.8666 127.333 20.96C127.426 21.0533 127.473 21.1666 127.473 21.3Z" fill="white"/>
<path d="M139.777 21.3V24.02C139.777 24.1533 139.731 24.2666 139.637 24.36C139.544 24.4533 139.431 24.5 139.297 24.5H129.317C129.171 24.5 129.051 24.4533 128.957 24.36C128.877 24.2666 128.837 24.1533 128.837 24.02V10.34C128.837 10.2066 128.877 10.0933 128.957 9.99998C129.051 9.90664 129.171 9.85998 129.317 9.85998H132.317C132.451 9.85998 132.564 9.90664 132.657 9.99998C132.751 10.0933 132.797 10.2066 132.797 10.34V20.34C132.797 20.4733 132.837 20.5866 132.917 20.68C133.011 20.7733 133.131 20.82 133.277 20.82H139.297C139.431 20.82 139.544 20.8666 139.637 20.96C139.731 21.0533 139.777 21.1666 139.777 21.3Z" fill="white"/>
<path d="M151.582 10.44L146.582 18.54C146.515 18.66 146.455 18.8066 146.402 18.98C146.349 19.1533 146.322 19.3066 146.322 19.44V24.02C146.322 24.1533 146.275 24.2666 146.182 24.36C146.089 24.4533 145.975 24.5 145.842 24.5H142.822C142.689 24.5 142.575 24.4533 142.482 24.36C142.389 24.2666 142.342 24.1533 142.342 24.02V19.46C142.342 19.3266 142.315 19.1733 142.262 19C142.222 18.8133 142.169 18.6666 142.102 18.56C141.302 17.1866 140.482 15.84 139.642 14.52C138.815 13.2 137.989 11.84 137.162 10.44C137.095 10.32 137.082 10.2 137.122 10.08C137.162 9.94664 137.249 9.87998 137.382 9.87998H140.942C141.075 9.87998 141.209 9.91998 141.342 9.99998C141.489 10.08 141.595 10.18 141.662 10.3L144.122 14.58C144.189 14.6866 144.269 14.74 144.362 14.74C144.455 14.74 144.535 14.6866 144.602 14.58L147.042 10.3C147.109 10.18 147.209 10.08 147.342 9.99998C147.489 9.91998 147.629 9.87998 147.762 9.87998H151.362C151.495 9.87998 151.589 9.92664 151.642 10.02C151.709 10.1133 151.689 10.2533 151.582 10.44Z" fill="white"/>
<path d="M165.858 20.56H164.118C163.984 20.56 163.871 20.6066 163.778 20.7C163.684 20.7933 163.638 20.9066 163.638 21.04V24.02C163.638 24.1533 163.591 24.2666 163.498 24.36C163.404 24.4533 163.291 24.5 163.158 24.5H160.138C160.004 24.5 159.891 24.4533 159.798 24.36C159.704 24.2666 159.658 24.1533 159.658 24.02V10.34C159.658 10.2066 159.704 10.0933 159.798 9.99998C159.891 9.90664 160.004 9.85998 160.138 9.85998H166.258C167.004 9.85998 167.704 9.99998 168.358 10.28C169.024 10.56 169.598 10.9466 170.078 11.44C170.571 11.9333 170.958 12.5066 171.238 13.16C171.531 13.8133 171.678 14.5133 171.678 15.26C171.678 16.0066 171.558 16.7066 171.318 17.36C171.078 18 170.711 18.56 170.218 19.04C169.738 19.5066 169.131 19.88 168.398 20.16C167.678 20.4266 166.831 20.56 165.858 20.56ZM165.998 13.54H164.118C163.984 13.54 163.871 13.5866 163.778 13.68C163.684 13.7733 163.638 13.8866 163.638 14.02V16.38C163.638 16.5133 163.684 16.6266 163.778 16.72C163.871 16.8133 163.984 16.86 164.118 16.86H166.258C166.764 16.86 167.131 16.7 167.358 16.38C167.598 16.0466 167.718 15.6733 167.718 15.26C167.718 15.0466 167.678 14.84 167.598 14.64C167.531 14.4266 167.424 14.24 167.278 14.08C167.131 13.92 166.951 13.7933 166.738 13.7C166.524 13.5933 166.278 13.54 165.998 13.54Z" fill="white"/>
<path d="M176.712 24.5H173.732C173.599 24.5 173.486 24.4533 173.392 24.36C173.299 24.2666 173.252 24.1533 173.252 24.02V10.34C173.252 10.2066 173.299 10.0933 173.392 9.99998C173.486 9.90664 173.599 9.85998 173.732 9.85998H179.952C180.726 9.85998 181.439 9.99331 182.092 10.26C182.746 10.5133 183.299 10.8733 183.752 11.34C184.219 11.8066 184.579 12.36 184.832 13C185.099 13.64 185.232 14.3466 185.232 15.12C185.232 15.5466 185.179 15.9733 185.072 16.4C184.979 16.8133 184.839 17.2066 184.652 17.58C184.466 17.9533 184.246 18.2933 183.992 18.6C183.739 18.8933 183.452 19.14 183.132 19.34C183.026 19.42 182.952 19.52 182.912 19.64C182.886 19.7466 182.912 19.8533 182.992 19.96C183.499 20.6266 184.032 21.3133 184.592 22.02C185.152 22.7266 185.652 23.3733 186.092 23.96C186.172 24.0666 186.192 24.1866 186.152 24.32C186.112 24.44 186.026 24.5 185.892 24.5H182.172C182.039 24.5 181.892 24.4666 181.732 24.4C181.586 24.32 181.472 24.2266 181.392 24.12C180.966 23.56 180.539 22.9933 180.112 22.42C179.699 21.8466 179.286 21.2666 178.872 20.68C178.792 20.5733 178.679 20.4866 178.532 20.42C178.386 20.34 178.246 20.3 178.112 20.3H177.672C177.539 20.3 177.426 20.3466 177.332 20.44C177.239 20.5333 177.192 20.6466 177.192 20.78V24.02C177.192 24.1533 177.146 24.2666 177.052 24.36C176.959 24.4533 176.846 24.5 176.712 24.5ZM177.672 16.62H179.792C179.952 16.62 180.119 16.5933 180.292 16.54C180.466 16.4733 180.626 16.38 180.772 16.26C180.919 16.1266 181.039 15.9666 181.132 15.78C181.226 15.5933 181.272 15.3733 181.272 15.12C181.272 14.9866 181.246 14.8333 181.192 14.66C181.152 14.4733 181.072 14.3 180.952 14.14C180.846 13.9666 180.692 13.8266 180.492 13.72C180.306 13.6 180.072 13.54 179.792 13.54H177.672C177.539 13.54 177.426 13.5866 177.332 13.68C177.239 13.7733 177.192 13.8866 177.192 14.02V16.14C177.192 16.2733 177.239 16.3866 177.332 16.48C177.426 16.5733 177.539 16.62 177.672 16.62Z" fill="white"/>
<path d="M186.987 17.18C186.987 16.14 187.187 15.16 187.587 14.24C187.987 13.32 188.527 12.52 189.207 11.84C189.887 11.1466 190.687 10.6 191.607 10.2C192.527 9.79998 193.507 9.59998 194.547 9.59998C195.587 9.59998 196.567 9.79998 197.487 10.2C198.407 10.6 199.207 11.1466 199.887 11.84C200.58 12.52 201.127 13.32 201.527 14.24C201.927 15.16 202.127 16.14 202.127 17.18C202.127 18.22 201.927 19.2 201.527 20.12C201.127 21.04 200.58 21.8466 199.887 22.54C199.207 23.22 198.407 23.76 197.487 24.16C196.567 24.56 195.587 24.76 194.547 24.76C193.507 24.76 192.527 24.56 191.607 24.16C190.687 23.76 189.887 23.22 189.207 22.54C188.527 21.8466 187.987 21.04 187.587 20.12C187.187 19.2 186.987 18.22 186.987 17.18ZM190.947 17.18C190.947 17.6866 191.04 18.1666 191.227 18.62C191.414 19.0733 191.667 19.4733 191.987 19.82C192.32 20.1666 192.707 20.4466 193.147 20.66C193.587 20.86 194.054 20.96 194.547 20.96C195.04 20.96 195.507 20.86 195.947 20.66C196.387 20.4466 196.774 20.1666 197.107 19.82C197.44 19.4733 197.7 19.0733 197.887 18.62C198.074 18.1666 198.167 17.6866 198.167 17.18C198.167 16.6866 198.074 16.2133 197.887 15.76C197.7 15.2933 197.44 14.8933 197.107 14.56C196.774 14.2133 196.387 13.94 195.947 13.74C195.507 13.5266 195.04 13.42 194.547 13.42C194.054 13.42 193.587 13.5266 193.147 13.74C192.707 13.94 192.32 14.2133 191.987 14.56C191.667 14.8933 191.414 15.2933 191.227 15.76C191.04 16.2133 190.947 16.6866 190.947 17.18Z" fill="white"/>
<path d="M203.549 17.18C203.549 16.14 203.749 15.16 204.149 14.24C204.549 13.32 205.089 12.52 205.769 11.84C206.449 11.1466 207.249 10.6 208.169 10.2C209.089 9.79998 210.069 9.59998 211.109 9.59998C212.149 9.59998 213.129 9.79998 214.049 10.2C214.969 10.6 215.769 11.1466 216.449 11.84C217.143 12.52 217.689 13.32 218.089 14.24C218.489 15.16 218.689 16.14 218.689 17.18C218.689 18.22 218.489 19.2 218.089 20.12C217.689 21.04 217.143 21.8466 216.449 22.54C215.769 23.22 214.969 23.76 214.049 24.16C213.129 24.56 212.149 24.76 211.109 24.76C210.069 24.76 209.089 24.56 208.169 24.16C207.249 23.76 206.449 23.22 205.769 22.54C205.089 21.8466 204.549 21.04 204.149 20.12C203.749 19.2 203.549 18.22 203.549 17.18ZM207.509 17.18C207.509 17.6866 207.603 18.1666 207.789 18.62C207.976 19.0733 208.229 19.4733 208.549 19.82C208.883 20.1666 209.269 20.4466 209.709 20.66C210.149 20.86 210.616 20.96 211.109 20.96C211.603 20.96 212.069 20.86 212.509 20.66C212.949 20.4466 213.336 20.1666 213.669 19.82C214.003 19.4733 214.263 19.0733 214.449 18.62C214.636 18.1666 214.729 17.6866 214.729 17.18C214.729 16.6866 214.636 16.2133 214.449 15.76C214.263 15.2933 214.003 14.8933 213.669 14.56C213.336 14.2133 212.949 13.94 212.509 13.74C212.069 13.5266 211.603 13.42 211.109 13.42C210.616 13.42 210.149 13.5266 209.709 13.74C209.269 13.94 208.883 14.2133 208.549 14.56C208.229 14.8933 207.976 15.2933 207.789 15.76C207.603 16.2133 207.509 16.6866 207.509 17.18Z" fill="white"/>
<path d="M224.712 14.04V14.88C224.712 15.0133 224.759 15.1266 224.852 15.22C224.945 15.3133 225.059 15.36 225.192 15.36H230.592C230.725 15.36 230.839 15.4066 230.932 15.5C231.025 15.5933 231.072 15.7066 231.072 15.84V18.64C231.072 18.7733 231.025 18.8866 230.932 18.98C230.839 19.0733 230.725 19.12 230.592 19.12H225.192C225.059 19.12 224.945 19.1666 224.852 19.26C224.759 19.3533 224.712 19.4666 224.712 19.6V24.02C224.712 24.1533 224.665 24.2666 224.572 24.36C224.479 24.4533 224.365 24.5 224.232 24.5H221.212C221.079 24.5 220.965 24.4533 220.872 24.36C220.779 24.2666 220.732 24.1533 220.732 24.02V10.34C220.732 10.2066 220.779 10.0933 220.872 9.99998C220.965 9.90664 221.079 9.85998 221.212 9.85998H231.392C231.525 9.85998 231.639 9.90664 231.732 9.99998C231.825 10.0933 231.872 10.2066 231.872 10.34V13.08C231.872 13.2133 231.825 13.3266 231.732 13.42C231.639 13.5133 231.525 13.56 231.392 13.56H225.192C225.059 13.56 224.945 13.6066 224.852 13.7C224.759 13.7933 224.712 13.9066 224.712 14.04Z" fill="white"/>
<path d="M253.675 10.34V24.02C253.675 24.1533 253.628 24.2666 253.535 24.36C253.441 24.4533 253.328 24.5 253.195 24.5H250.195C250.048 24.5 249.928 24.4533 249.835 24.36C249.755 24.2666 249.715 24.1533 249.715 24.02V19.74C249.715 19.6066 249.668 19.4933 249.575 19.4C249.481 19.3066 249.368 19.26 249.235 19.26H245.115C244.968 19.26 244.848 19.3066 244.755 19.4C244.675 19.4933 244.635 19.6066 244.635 19.74V24.02C244.635 24.1533 244.588 24.2666 244.495 24.36C244.401 24.4533 244.288 24.5 244.155 24.5H241.175C241.028 24.5 240.908 24.4533 240.815 24.36C240.735 24.2666 240.695 24.1533 240.695 24.02V10.34C240.695 10.2066 240.735 10.0933 240.815 9.99998C240.908 9.90664 241.028 9.85998 241.175 9.85998H244.155C244.288 9.85998 244.401 9.90664 244.495 9.99998C244.588 10.0933 244.635 10.2066 244.635 10.34V15.08C244.635 15.2133 244.675 15.3266 244.755 15.42C244.848 15.5133 244.968 15.56 245.115 15.56H249.235C249.368 15.56 249.481 15.5133 249.575 15.42C249.668 15.3266 249.715 15.2133 249.715 15.08V10.34C249.715 10.2066 249.755 10.0933 249.835 9.99998C249.928 9.90664 250.048 9.85998 250.195 9.85998H253.195C253.328 9.85998 253.441 9.90664 253.535 9.99998C253.628 10.0933 253.675 10.2066 253.675 10.34Z" fill="white"/>
<path d="M255.991 17.18C255.991 16.14 256.191 15.16 256.591 14.24C256.991 13.32 257.531 12.52 258.211 11.84C258.891 11.1466 259.691 10.6 260.611 10.2C261.531 9.79998 262.511 9.59998 263.551 9.59998C264.591 9.59998 265.571 9.79998 266.491 10.2C267.411 10.6 268.211 11.1466 268.891 11.84C269.584 12.52 270.131 13.32 270.531 14.24C270.931 15.16 271.131 16.14 271.131 17.18C271.131 18.22 270.931 19.2 270.531 20.12C270.131 21.04 269.584 21.8466 268.891 22.54C268.211 23.22 267.411 23.76 266.491 24.16C265.571 24.56 264.591 24.76 263.551 24.76C262.511 24.76 261.531 24.56 260.611 24.16C259.691 23.76 258.891 23.22 258.211 22.54C257.531 21.8466 256.991 21.04 256.591 20.12C256.191 19.2 255.991 18.22 255.991 17.18ZM259.951 17.18C259.951 17.6866 260.044 18.1666 260.231 18.62C260.417 19.0733 260.671 19.4733 260.991 19.82C261.324 20.1666 261.711 20.4466 262.151 20.66C262.591 20.86 263.057 20.96 263.551 20.96C264.044 20.96 264.511 20.86 264.951 20.66C265.391 20.4466 265.777 20.1666 266.111 19.82C266.444 19.4733 266.704 19.0733 266.891 18.62C267.077 18.1666 267.171 17.6866 267.171 17.18C267.171 16.6866 267.077 16.2133 266.891 15.76C266.704 15.2933 266.444 14.8933 266.111 14.56C265.777 14.2133 265.391 13.94 264.951 13.74C264.511 13.5266 264.044 13.42 263.551 13.42C263.057 13.42 262.591 13.5266 262.151 13.74C261.711 13.94 261.324 14.2133 260.991 14.56C260.671 14.8933 260.417 15.2933 260.231 15.76C260.044 16.2133 259.951 16.6866 259.951 17.18Z" fill="white"/>
<path d="M287.333 20.6C286.947 21.2266 286.52 21.8 286.053 22.32C285.587 22.8266 285.06 23.26 284.473 23.62C283.9 23.98 283.26 24.26 282.553 24.46C281.847 24.66 281.067 24.76 280.213 24.76C279.147 24.76 278.147 24.56 277.213 24.16C276.28 23.76 275.46 23.22 274.753 22.54C274.06 21.86 273.513 21.06 273.113 20.14C272.713 19.22 272.513 18.24 272.513 17.2C272.513 16.16 272.713 15.18 273.113 14.26C273.513 13.34 274.06 12.54 274.753 11.86C275.46 11.18 276.28 10.64 277.213 10.24C278.147 9.83998 279.147 9.63998 280.213 9.63998C281.093 9.63998 281.887 9.73998 282.593 9.93998C283.3 10.14 283.94 10.42 284.513 10.78C285.087 11.14 285.6 11.58 286.053 12.1C286.52 12.6066 286.947 13.1666 287.333 13.78C287.4 13.8866 287.413 14 287.373 14.12C287.333 14.24 287.253 14.3266 287.133 14.38L284.293 15.5C284.16 15.5533 284.027 15.5533 283.893 15.5C283.76 15.4466 283.66 15.3666 283.593 15.26C283.207 14.6466 282.74 14.18 282.193 13.86C281.647 13.5266 280.987 13.36 280.213 13.36C279.707 13.36 279.227 13.4666 278.773 13.68C278.333 13.8933 277.947 14.18 277.613 14.54C277.28 14.8866 277.02 15.2933 276.833 15.76C276.647 16.2266 276.553 16.7066 276.553 17.2C276.553 17.7066 276.647 18.1933 276.833 18.66C277.02 19.1133 277.28 19.5133 277.613 19.86C277.947 20.2066 278.333 20.4866 278.773 20.7C279.227 20.9133 279.707 21.02 280.213 21.02C280.947 21.02 281.607 20.8466 282.193 20.5C282.793 20.14 283.267 19.68 283.613 19.12C283.68 19.0133 283.773 18.9333 283.893 18.88C284.027 18.8266 284.16 18.8266 284.293 18.88L287.133 20C287.253 20.0533 287.333 20.14 287.373 20.26C287.413 20.3666 287.4 20.48 287.333 20.6Z" fill="white"/>
<path d="M297.058 24.14L293.178 19.8C293.084 19.6933 293.004 19.6533 292.938 19.68C292.884 19.7066 292.858 19.7866 292.858 19.92V24.02C292.858 24.1533 292.811 24.2666 292.718 24.36C292.624 24.4533 292.511 24.5 292.378 24.5H289.378C289.231 24.5 289.111 24.4533 289.018 24.36C288.938 24.2666 288.898 24.1533 288.898 24.02V10.34C288.898 10.2066 288.938 10.0933 289.018 9.99998C289.111 9.90664 289.231 9.85998 289.378 9.85998H292.378C292.511 9.85998 292.624 9.90664 292.718 9.99998C292.811 10.0933 292.858 10.2066 292.858 10.34V14.94C292.858 15.0733 292.884 15.1533 292.938 15.18C292.991 15.1933 293.058 15.1466 293.138 15.04L296.738 10.26C296.818 10.1533 296.931 10.0666 297.078 9.99998C297.224 9.91998 297.371 9.87998 297.518 9.87998H301.338C301.484 9.87998 301.578 9.94664 301.618 10.08C301.658 10.2 301.638 10.3133 301.558 10.42L296.298 17C296.218 17.1066 296.178 17.2333 296.178 17.38C296.191 17.5133 296.244 17.6266 296.338 17.72C296.791 18.2133 297.271 18.7266 297.778 19.26C298.284 19.7933 298.784 20.3333 299.278 20.88C299.784 21.4133 300.278 21.9466 300.758 22.48C301.251 23 301.718 23.4866 302.158 23.94C302.251 24.0466 302.284 24.1666 302.258 24.3C302.231 24.4333 302.144 24.5 301.998 24.5H297.858C297.711 24.5 297.558 24.4666 297.398 24.4C297.251 24.3333 297.138 24.2466 297.058 24.14Z" fill="white"/>
<path d="M307.485 14.02V14.86C307.485 14.9933 307.532 15.1066 307.625 15.2C307.718 15.2933 307.832 15.34 307.965 15.34H313.385C313.518 15.34 313.632 15.3866 313.725 15.48C313.818 15.5733 313.865 15.6866 313.865 15.82V18.58C313.865 18.7133 313.818 18.8266 313.725 18.92C313.632 19.0133 313.518 19.06 313.385 19.06H307.965C307.832 19.06 307.718 19.1066 307.625 19.2C307.532 19.2933 307.485 19.4066 307.485 19.54V20.3C307.485 20.4333 307.532 20.5466 307.625 20.64C307.718 20.7333 307.832 20.78 307.965 20.78H314.185C314.318 20.78 314.432 20.8266 314.525 20.92C314.618 21.0133 314.665 21.1266 314.665 21.26V24.02C314.665 24.1533 314.618 24.2666 314.525 24.36C314.432 24.4533 314.318 24.5 314.185 24.5H304.005C303.872 24.5 303.758 24.4533 303.665 24.36C303.572 24.2666 303.525 24.1533 303.525 24.02V10.34C303.525 10.2066 303.572 10.0933 303.665 9.99998C303.758 9.90664 303.872 9.85998 304.005 9.85998H314.185C314.318 9.85998 314.432 9.90664 314.525 9.99998C314.618 10.0933 314.665 10.2066 314.665 10.34V13.06C314.665 13.1933 314.618 13.3066 314.525 13.4C314.432 13.4933 314.318 13.54 314.185 13.54H307.965C307.832 13.54 307.718 13.5866 307.625 13.68C307.532 13.7733 307.485 13.8866 307.485 14.02Z" fill="white"/>
<path d="M329.727 10.44L324.727 18.54C324.66 18.66 324.6 18.8066 324.547 18.98C324.493 19.1533 324.467 19.3066 324.467 19.44V24.02C324.467 24.1533 324.42 24.2666 324.327 24.36C324.233 24.4533 324.12 24.5 323.987 24.5H320.967C320.833 24.5 320.72 24.4533 320.627 24.36C320.533 24.2666 320.487 24.1533 320.487 24.02V19.46C320.487 19.3266 320.46 19.1733 320.407 19C320.367 18.8133 320.313 18.6666 320.247 18.56C319.447 17.1866 318.627 15.84 317.787 14.52C316.96 13.2 316.133 11.84 315.307 10.44C315.24 10.32 315.227 10.2 315.267 10.08C315.307 9.94664 315.393 9.87998 315.527 9.87998H319.087C319.22 9.87998 319.353 9.91998 319.487 9.99998C319.633 10.08 319.74 10.18 319.807 10.3L322.267 14.58C322.333 14.6866 322.413 14.74 322.507 14.74C322.6 14.74 322.68 14.6866 322.747 14.58L325.187 10.3C325.253 10.18 325.353 10.08 325.487 9.99998C325.633 9.91998 325.773 9.87998 325.907 9.87998H329.507C329.64 9.87998 329.733 9.92664 329.787 10.02C329.853 10.1133 329.833 10.2533 329.727 10.44Z" fill="white"/>
<path d="M91.04 38.04V38.88C91.04 39.0133 91.0867 39.1266 91.18 39.22C91.2733 39.3133 91.3867 39.36 91.52 39.36H96.92C97.0533 39.36 97.1667 39.4066 97.26 39.5C97.3533 39.5933 97.4 39.7066 97.4 39.84V42.64C97.4 42.7733 97.3533 42.8866 97.26 42.98C97.1667 43.0733 97.0533 43.12 96.92 43.12H91.52C91.3867 43.12 91.2733 43.1666 91.18 43.26C91.0867 43.3533 91.04 43.4666 91.04 43.6V48.02C91.04 48.1533 90.9933 48.2666 90.9 48.36C90.8067 48.4533 90.6933 48.5 90.56 48.5H87.54C87.4067 48.5 87.2933 48.4533 87.2 48.36C87.1067 48.2666 87.06 48.1533 87.06 48.02V34.34C87.06 34.2066 87.1067 34.0933 87.2 34C87.2933 33.9066 87.4067 33.86 87.54 33.86H97.72C97.8533 33.86 97.9667 33.9066 98.06 34C98.1533 34.0933 98.2 34.2066 98.2 34.34V37.08C98.2 37.2133 98.1533 37.3266 98.06 37.42C97.9667 37.5133 97.8533 37.56 97.72 37.56H91.52C91.3867 37.56 91.2733 37.6066 91.18 37.7C91.0867 37.7933 91.04 37.9066 91.04 38.04Z" fill="white"/>
<path d="M99.4869 41.18C99.4869 40.14 99.6869 39.16 100.087 38.24C100.487 37.32 101.027 36.52 101.707 35.84C102.387 35.1466 103.187 34.6 104.107 34.2C105.027 33.8 106.007 33.6 107.047 33.6C108.087 33.6 109.067 33.8 109.987 34.2C110.907 34.6 111.707 35.1466 112.387 35.84C113.08 36.52 113.627 37.32 114.027 38.24C114.427 39.16 114.627 40.14 114.627 41.18C114.627 42.22 114.427 43.2 114.027 44.12C113.627 45.04 113.08 45.8466 112.387 46.54C111.707 47.22 110.907 47.76 109.987 48.16C109.067 48.56 108.087 48.76 107.047 48.76C106.007 48.76 105.027 48.56 104.107 48.16C103.187 47.76 102.387 47.22 101.707 46.54C101.027 45.8466 100.487 45.04 100.087 44.12C99.6869 43.2 99.4869 42.22 99.4869 41.18ZM103.447 41.18C103.447 41.6866 103.54 42.1666 103.727 42.62C103.914 43.0733 104.167 43.4733 104.487 43.82C104.82 44.1666 105.207 44.4466 105.647 44.66C106.087 44.86 106.554 44.96 107.047 44.96C107.54 44.96 108.007 44.86 108.447 44.66C108.887 44.4466 109.274 44.1666 109.607 43.82C109.94 43.4733 110.2 43.0733 110.387 42.62C110.574 42.1666 110.667 41.6866 110.667 41.18C110.667 40.6866 110.574 40.2133 110.387 39.76C110.2 39.2933 109.94 38.8933 109.607 38.56C109.274 38.2133 108.887 37.94 108.447 37.74C108.007 37.5266 107.54 37.42 107.047 37.42C106.554 37.42 106.087 37.5266 105.647 37.74C105.207 37.94 104.82 38.2133 104.487 38.56C104.167 38.8933 103.914 39.2933 103.727 39.76C103.54 40.2133 103.447 40.6866 103.447 41.18Z" fill="white"/>
<path d="M116.689 34.36C116.689 34.2266 116.736 34.1133 116.829 34.02C116.923 33.9266 117.036 33.88 117.169 33.88H120.189C120.323 33.88 120.436 33.9266 120.529 34.02C120.623 34.1133 120.669 34.2266 120.669 34.36V42.46C120.669 42.98 120.749 43.4133 120.909 43.76C121.083 44.0933 121.289 44.36 121.529 44.56C121.783 44.7466 122.049 44.88 122.329 44.96C122.609 45.04 122.863 45.08 123.089 45.08C123.316 45.08 123.569 45.04 123.849 44.96C124.129 44.88 124.389 44.7466 124.629 44.56C124.869 44.36 125.069 44.0933 125.229 43.76C125.403 43.4133 125.489 42.98 125.489 42.46V34.36C125.489 34.2266 125.536 34.1133 125.629 34.02C125.723 33.9266 125.836 33.88 125.969 33.88H128.989C129.123 33.88 129.236 33.9266 129.329 34.02C129.423 34.1133 129.469 34.2266 129.469 34.36V42.46C129.469 43.4066 129.316 44.2666 129.009 45.04C128.716 45.8133 128.289 46.4733 127.729 47.02C127.169 47.5666 126.496 47.9933 125.709 48.3C124.923 48.5933 124.049 48.74 123.089 48.74C122.129 48.74 121.256 48.5933 120.469 48.3C119.683 47.9933 119.009 47.5666 118.449 47.02C117.889 46.4733 117.456 45.8133 117.149 45.04C116.843 44.2666 116.689 43.4066 116.689 42.46V34.36Z" fill="white"/>
<path d="M146.211 34.34V48.02C146.211 48.1533 146.164 48.2666 146.071 48.36C145.978 48.4533 145.864 48.5 145.731 48.5H142.771C142.638 48.5 142.498 48.46 142.351 48.38C142.204 48.3 142.091 48.2066 142.011 48.1L136.791 40.76C136.711 40.6533 136.624 40.6133 136.531 40.64C136.451 40.6533 136.411 40.7266 136.411 40.86V48.02C136.411 48.1533 136.364 48.2666 136.271 48.36C136.178 48.4533 136.064 48.5 135.931 48.5H132.951C132.818 48.5 132.704 48.4533 132.611 48.36C132.518 48.2666 132.471 48.1533 132.471 48.02V34.34C132.471 34.2066 132.518 34.0933 132.611 34C132.704 33.9066 132.818 33.86 132.951 33.86H135.951C136.084 33.86 136.224 33.9 136.371 33.98C136.518 34.0466 136.631 34.1333 136.711 34.24L141.911 41.58C141.991 41.6866 142.071 41.7333 142.151 41.72C142.244 41.7066 142.291 41.6333 142.291 41.5V34.34C142.291 34.2066 142.338 34.0933 142.431 34C142.524 33.9066 142.638 33.86 142.771 33.86H145.731C145.864 33.86 145.978 33.9066 146.071 34C146.164 34.0933 146.211 34.2066 146.211 34.34Z" fill="white"/>
<path d="M149.249 48.02V34.34C149.249 34.2066 149.296 34.0933 149.389 34C149.482 33.9066 149.596 33.86 149.729 33.86H155.189C157.282 33.86 158.996 34.4733 160.329 35.7C161.049 36.3666 161.596 37.16 161.969 38.08C162.342 39 162.529 40.0333 162.529 41.18C162.529 42.3266 162.342 43.3666 161.969 44.3C161.596 45.22 161.049 46.0133 160.329 46.68C159.662 47.28 158.896 47.7333 158.029 48.04C157.176 48.3466 156.229 48.5 155.189 48.5H149.729C149.596 48.5 149.482 48.4533 149.389 48.36C149.296 48.2666 149.249 48.1533 149.249 48.02ZM153.689 44.82H155.189C155.562 44.82 155.949 44.7733 156.349 44.68C156.749 44.5866 157.109 44.4133 157.429 44.16C157.749 43.8933 158.009 43.5266 158.209 43.06C158.422 42.58 158.529 41.96 158.529 41.2C158.529 40.44 158.422 39.8266 158.209 39.36C158.009 38.88 157.742 38.5133 157.409 38.26C157.089 37.9933 156.729 37.8133 156.329 37.72C155.942 37.6266 155.562 37.58 155.189 37.58H153.689C153.556 37.58 153.442 37.6266 153.349 37.72C153.256 37.8133 153.209 37.9266 153.209 38.06V44.34C153.209 44.4733 153.256 44.5866 153.349 44.68C153.442 44.7733 153.556 44.82 153.689 44.82Z" fill="white"/>
<path d="M167.689 34.32C167.742 34.2 167.829 34.1 167.949 34.02C168.082 33.9266 168.222 33.88 168.369 33.88H171.169C171.302 33.88 171.429 33.9266 171.549 34.02C171.682 34.1 171.776 34.2 171.829 34.32L177.669 47.92C177.722 48.04 177.709 48.1666 177.629 48.3C177.562 48.4333 177.422 48.5 177.209 48.5H173.789C173.642 48.5 173.502 48.46 173.369 48.38C173.249 48.2866 173.156 48.18 173.089 48.06L172.549 46.86C172.482 46.74 172.382 46.64 172.249 46.56C172.129 46.4666 172.002 46.42 171.869 46.42H167.649C167.502 46.42 167.362 46.4666 167.229 46.56C167.109 46.64 167.022 46.74 166.969 46.86L166.409 48.06C166.356 48.18 166.262 48.2866 166.129 48.38C166.009 48.46 165.882 48.5 165.749 48.5H162.309C162.242 48.5 162.176 48.4866 162.109 48.46C162.029 48.4333 161.969 48.3933 161.929 48.34C161.876 48.2866 161.842 48.22 161.829 48.14C161.816 48.06 161.836 47.9666 161.889 47.86L167.689 34.32ZM168.869 43.02H170.649C170.782 43.02 170.876 42.98 170.929 42.9C170.996 42.8066 170.996 42.7 170.929 42.58C170.796 42.2466 170.636 41.86 170.449 41.42C170.262 40.9666 170.089 40.5466 169.929 40.16C169.876 40.04 169.816 39.98 169.749 39.98C169.682 39.98 169.622 40.04 169.569 40.16L168.569 42.58C168.516 42.7 168.516 42.8066 168.569 42.9C168.622 42.98 168.722 43.02 168.869 43.02Z" fill="white"/>
<path d="M187.148 37.54H184.348C184.215 37.54 184.102 37.5866 184.008 37.68C183.915 37.7733 183.868 37.8866 183.868 38.02V48.02C183.868 48.1533 183.822 48.2666 183.728 48.36C183.648 48.4533 183.535 48.5 183.388 48.5H180.388C180.255 48.5 180.142 48.4533 180.048 48.36C179.955 48.2666 179.908 48.1533 179.908 48.02V38.02C179.908 37.8866 179.862 37.7733 179.768 37.68C179.688 37.5866 179.575 37.54 179.428 37.54H176.588C176.455 37.54 176.342 37.4933 176.248 37.4C176.155 37.3066 176.108 37.1933 176.108 37.06V34.34C176.108 34.2066 176.155 34.0933 176.248 34C176.342 33.9066 176.455 33.86 176.588 33.86H187.148C187.295 33.86 187.408 33.9066 187.488 34C187.582 34.0933 187.628 34.2066 187.628 34.34V37.06C187.628 37.1933 187.582 37.3066 187.488 37.4C187.408 37.4933 187.295 37.54 187.148 37.54Z" fill="white"/>
<path d="M192.83 48.5H189.81C189.663 48.5 189.543 48.4533 189.45 48.36C189.37 48.2666 189.33 48.1533 189.33 48.02V34.36C189.33 34.2266 189.37 34.1133 189.45 34.02C189.543 33.9266 189.663 33.88 189.81 33.88H192.83C192.963 33.88 193.077 33.9266 193.17 34.02C193.263 34.1133 193.31 34.2266 193.31 34.36V48.02C193.31 48.1533 193.263 48.2666 193.17 48.36C193.077 48.4533 192.963 48.5 192.83 48.5Z" fill="white"/>
<path d="M195.327 41.18C195.327 40.14 195.527 39.16 195.927 38.24C196.327 37.32 196.867 36.52 197.547 35.84C198.227 35.1466 199.027 34.6 199.947 34.2C200.867 33.8 201.847 33.6 202.887 33.6C203.927 33.6 204.907 33.8 205.827 34.2C206.747 34.6 207.547 35.1466 208.227 35.84C208.92 36.52 209.467 37.32 209.867 38.24C210.267 39.16 210.467 40.14 210.467 41.18C210.467 42.22 210.267 43.2 209.867 44.12C209.467 45.04 208.92 45.8466 208.227 46.54C207.547 47.22 206.747 47.76 205.827 48.16C204.907 48.56 203.927 48.76 202.887 48.76C201.847 48.76 200.867 48.56 199.947 48.16C199.027 47.76 198.227 47.22 197.547 46.54C196.867 45.8466 196.327 45.04 195.927 44.12C195.527 43.2 195.327 42.22 195.327 41.18ZM199.287 41.18C199.287 41.6866 199.38 42.1666 199.567 42.62C199.753 43.0733 200.007 43.4733 200.327 43.82C200.66 44.1666 201.047 44.4466 201.487 44.66C201.927 44.86 202.393 44.96 202.887 44.96C203.38 44.96 203.847 44.86 204.287 44.66C204.727 44.4466 205.113 44.1666 205.447 43.82C205.78 43.4733 206.04 43.0733 206.227 42.62C206.413 42.1666 206.507 41.6866 206.507 41.18C206.507 40.6866 206.413 40.2133 206.227 39.76C206.04 39.2933 205.78 38.8933 205.447 38.56C205.113 38.2133 204.727 37.94 204.287 37.74C203.847 37.5266 203.38 37.42 202.887 37.42C202.393 37.42 201.927 37.5266 201.487 37.74C201.047 37.94 200.66 38.2133 200.327 38.56C200.007 38.8933 199.753 39.2933 199.567 39.76C199.38 40.2133 199.287 40.6866 199.287 41.18Z" fill="white"/>
<path d="M226.289 34.34V48.02C226.289 48.1533 226.243 48.2666 226.149 48.36C226.056 48.4533 225.943 48.5 225.809 48.5H222.849C222.716 48.5 222.576 48.46 222.429 48.38C222.283 48.3 222.169 48.2066 222.089 48.1L216.869 40.76C216.789 40.6533 216.703 40.6133 216.609 40.64C216.529 40.6533 216.489 40.7266 216.489 40.86V48.02C216.489 48.1533 216.443 48.2666 216.349 48.36C216.256 48.4533 216.143 48.5 216.009 48.5H213.029C212.896 48.5 212.783 48.4533 212.689 48.36C212.596 48.2666 212.549 48.1533 212.549 48.02V34.34C212.549 34.2066 212.596 34.0933 212.689 34C212.783 33.9066 212.896 33.86 213.029 33.86H216.029C216.163 33.86 216.303 33.9 216.449 33.98C216.596 34.0466 216.709 34.1333 216.789 34.24L221.989 41.58C222.069 41.6866 222.149 41.7333 222.229 41.72C222.323 41.7066 222.369 41.6333 222.369 41.5V34.34C222.369 34.2066 222.416 34.0933 222.509 34C222.603 33.9066 222.716 33.86 222.849 33.86H225.809C225.943 33.86 226.056 33.9066 226.149 34C226.243 34.0933 226.289 34.2066 226.289 34.34Z" fill="white"/>
</svg>
